<svg xmlns="http://www.w3.org/2000/svg" version="1.1" xmlns:xlink="http://www.w3.org/1999/xlink" width="43.169289mm" height="49.951874mm"><svg width="43.169289mm" height="49.951874mm" viewBox="0 0 43.169289 49.951874" version="1.1" id="SvgjsSvg1278" inkscape:version="1.4 (1:1.4+202410161351+e7c3feb100)" sodipodi:docname="logo.svg" xml:space="preserve" xmlns:inkscape="http://www.inkscape.org/namespaces/inkscape" xmlns:sodipodi="http://sodipodi.sourceforge.net/DTD/sodipodi-0.dtd" xmlns="http://www.w3.org/2000/svg" xmlns:svg="http://www.w3.org/2000/svg"><sodipodi:namedview id="SvgjsSodipodi:namedview1277" pagecolor="#ffffff" bordercolor="#000000" borderopacity="0.25" inkscape:pageshadow="2" inkscape:pageopacity="0.0" inkscape:pagecheckerboard="0" inkscape:document-units="mm" showgrid="false" inkscape:zoom="3.2814072" inkscape:cx="56.378251" inkscape:cy="77.710563" inkscape:window-width="1680" inkscape:window-height="981" inkscape:window-x="1920" inkscape:window-y="32" inkscape:window-maximized="1" inkscape:current-layer="g57911" showguides="true" inkscape:guide-bbox="true" fit-margin-top="0" fit-margin-left="0" fit-margin-right="0" fit-margin-bottom="0" inkscape:showpageshadow="2" inkscape:deskcolor="#d1d1d1"><sodipodi:guide position="10.107056,30.214844" orientation="1,0" id="SvgjsSodipodi:guide1276" inkscape:locked="false"></sodipodi:guide></sodipodi:namedview><defs id="SvgjsDefs1275"><inkscape:perspective sodipodi:type="inkscape:persp3d" inkscape:vp_x="0 : 635.08828 : 1" inkscape:vp_y="0 : 1000 : 0" inkscape:vp_z="1500.0001 : 635.08828 : 1" inkscape:persp3d-origin="750.00003 : 341.04281 : 1" id="SvgjsInkscape:perspective1274"></inkscape:perspective><clipPath id="SvgjsClipPath1273"><path d="m 45.315,71.927 h 12.92 v 15.867 h -12.92 z" id="SvgjsPath1272" inkscape:connector-curvature="0"></path></clipPath><clipPath id="SvgjsClipPath1271"><path d="m 123.91,72.178 h 26.23 v 15.294 h -26.23 z" id="SvgjsPath1270" inkscape:connector-curvature="0"></path></clipPath><clipPath id="SvgjsClipPath1269"><path d="m 413.96,49.857 h 31.76 v 8.719 h -31.76 z" id="SvgjsPath1268" inkscape:connector-curvature="0"></path></clipPath><inkscape:perspective sodipodi:type="inkscape:persp3d" inkscape:vp_x="0 : 388.91986 : 1" inkscape:vp_y="0 : 999.99996 : 0" inkscape:vp_z="1500.0001 : 388.91986 : 1" inkscape:persp3d-origin="750.00001 : 94.874402 : 1" id="SvgjsInkscape:perspective1267"></inkscape:perspective><clipPath id="SvgjsClipPath1266"><path d="m 45.315,71.927 h 12.92 v 15.867 h -12.92 z" id="SvgjsPath1265" inkscape:connector-curvature="0"></path></clipPath><clipPath id="SvgjsClipPath1264"><path d="m 123.91,72.178 h 26.23 v 15.294 h -26.23 z" id="SvgjsPath1263" inkscape:connector-curvature="0"></path></clipPath><clipPath id="SvgjsClipPath1262"><path d="m 413.96,49.857 h 31.76 v 8.719 h -31.76 z" id="SvgjsPath1261" inkscape:connector-curvature="0"></path></clipPath><inkscape:perspective sodipodi:type="inkscape:persp3d" inkscape:vp_x="0 : 388.91986 : 1" inkscape:vp_y="0 : 999.99996 : 0" inkscape:vp_z="1500.0001 : 388.91986 : 1" inkscape:persp3d-origin="750.00001 : 94.874402 : 1" id="SvgjsInkscape:perspective1260"></inkscape:perspective><clipPath id="SvgjsClipPath1259"><path d="m 45.315,71.927 h 12.92 v 15.867 h -12.92 z" id="SvgjsPath1258" inkscape:connector-curvature="0"></path></clipPath><clipPath id="SvgjsClipPath1257"><path d="m 123.91,72.178 h 26.23 v 15.294 h -26.23 z" id="SvgjsPath1256" inkscape:connector-curvature="0"></path></clipPath><clipPath id="SvgjsClipPath1255"><path d="m 413.96,49.857 h 31.76 v 8.719 h -31.76 z" id="SvgjsPath1254" inkscape:connector-curvature="0"></path></clipPath><inkscape:perspective sodipodi:type="inkscape:persp3d" inkscape:vp_x="0 : 635.08828 : 1" inkscape:vp_y="0 : 1000 : 0" inkscape:vp_z="1500.0001 : 635.08828 : 1" inkscape:persp3d-origin="750.00003 : 341.04281 : 1" id="SvgjsInkscape:perspective1253"></inkscape:perspective><clipPath id="SvgjsClipPath1252"><path d="m 45.315,71.927 h 12.92 v 15.867 h -12.92 z" id="SvgjsPath1251" inkscape:connector-curvature="0"></path></clipPath><clipPath id="SvgjsClipPath1250"><path d="m 123.91,72.178 h 26.23 v 15.294 h -26.23 z" id="SvgjsPath1249" inkscape:connector-curvature="0"></path></clipPath><clipPath id="SvgjsClipPath1248"><path d="m 413.96,49.857 h 31.76 v 8.719 h -31.76 z" id="SvgjsPath1247" inkscape:connector-curvature="0"></path></clipPath><inkscape:perspective sodipodi:type="inkscape:persp3d" inkscape:vp_x="0 : 635.08828 : 1" inkscape:vp_y="0 : 1000 : 0" inkscape:vp_z="1500.0001 : 635.08828 : 1" inkscape:persp3d-origin="750.00003 : 341.04281 : 1" id="SvgjsInkscape:perspective1246"></inkscape:perspective><clipPath id="SvgjsClipPath1245"><path d="m 45.315,71.927 h 12.92 v 15.867 h -12.92 z" id="SvgjsPath1244" inkscape:connector-curvature="0"></path></clipPath><clipPath id="SvgjsClipPath1243"><path d="m 123.91,72.178 h 26.23 v 15.294 h -26.23 z" id="SvgjsPath1242" inkscape:connector-curvature="0"></path></clipPath><clipPath id="SvgjsClipPath1241"><path d="m 413.96,49.857 h 31.76 v 8.719 h -31.76 z" id="SvgjsPath1240" inkscape:connector-curvature="0"></path></clipPath><inkscape:perspective sodipodi:type="inkscape:persp3d" inkscape:vp_x="0 : 635.08828 : 1" inkscape:vp_y="0 : 1000 : 0" inkscape:vp_z="1500.0001 : 635.08828 : 1" inkscape:persp3d-origin="750.00003 : 341.04281 : 1" id="SvgjsInkscape:perspective1239"></inkscape:perspective><clipPath id="SvgjsClipPath1238"><path d="m 45.315,71.927 h 12.92 v 15.867 h -12.92 z" id="SvgjsPath1237" inkscape:connector-curvature="0"></path></clipPath><clipPath id="SvgjsClipPath1236"><path d="m 123.91,72.178 h 26.23 v 15.294 h -26.23 z" id="SvgjsPath1235" inkscape:connector-curvature="0"></path></clipPath><clipPath id="SvgjsClipPath1234"><path d="m 413.96,49.857 h 31.76 v 8.719 h -31.76 z" id="SvgjsPath1233" inkscape:connector-curvature="0"></path></clipPath><clipPath clipPathUnits="userSpaceOnUse" id="SvgjsClipPath1232"><path d="m 4269.8013,3683.3309 h 1147.8999 v 971.0208 H 4269.8013 Z" id="SvgjsPath1231" style="stroke-width:1"></path></clipPath><clipPath clipPathUnits="userSpaceOnUse" id="SvgjsClipPath1230"><path d="M 4470.8312,4481.7918 H 4605.37 v 78.0115 h -134.5388 z" id="SvgjsPath1229" style="stroke-width:1"></path></clipPath><clipPath clipPathUnits="userSpaceOnUse" id="SvgjsClipPath1228"><path d="m 4741.7216,4511.2015 h 112.5895 v 65.3909 h -112.5895 z" id="SvgjsPath1227" style="stroke-width:1"></path></clipPath><clipPath clipPathUnits="userSpaceOnUse" id="SvgjsClipPath1226"><path d="m 5003.011,4464.492 h 106.2583 v 61.7067 H 5003.011 Z" id="SvgjsPath1225" style="stroke-width:1"></path></clipPath><clipPath clipPathUnits="userSpaceOnUse" id="SvgjsClipPath1224"><path d="m 4641.1913,4337.7815 h 112.6288 v 65.3089 h -112.6288 z" id="SvgjsPath1223" style="stroke-width:1"></path></clipPath><clipPath clipPathUnits="userSpaceOnUse" id="SvgjsClipPath1222"><path d="m 4831.9313,4184.5413 h 95.2423 v 65.6607 h -95.2423 z" id="SvgjsPath1221" style="stroke-width:1"></path></clipPath><clipPath clipPathUnits="userSpaceOnUse" id="SvgjsClipPath1220"><path d="m 4538.1014,4190.2212 h 95.2303 v 65.6607 h -95.2303 z" id="SvgjsPath1219" style="stroke-width:1"></path></clipPath><clipPath clipPathUnits="userSpaceOnUse" id="SvgjsClipPath1218"><path d="m 5164.2513,4213.9711 h 95.2302 v 65.6607 h -95.2302 z" id="SvgjsPath1217" style="stroke-width:1"></path></clipPath><clipPath clipPathUnits="userSpaceOnUse" id="SvgjsClipPath1216"><path d="m 4394.9914,4317.7212 h 112.5935 v 65.3908 h -112.5935 z" id="SvgjsPath1215" style="stroke-width:1"></path></clipPath><clipPath clipPathUnits="userSpaceOnUse" id="SvgjsClipPath1214"><path d="m 4921.9716,4322.9216 h 110.633 v 68.6797 h -110.633 z" id="SvgjsPath1213" style="stroke-width:1"></path></clipPath></defs><g inkscape:label="Layer 1" inkscape:groupmode="layer" id="SvgjsG1212" transform="translate(133.93872,576.10609)"><text xml:space="preserve" style="font-size:4.23333px;font-family:sans-serif;-inkscape-font-specification:sans-serif;fill:#fdf0e3;fill-opacity:1;stroke:#4a280d;stroke-width:15;stroke-linecap:round;stroke-linejoin:round;stroke-miterlimit:4;stroke-dasharray:none" x="-105.7908" y="-558.50726" id="SvgjsText1211"><tspan sodipodi:role="line" id="SvgjsTspan1210" style="stroke-width:15;stroke-miterlimit:4;stroke-dasharray:none" x="-105.7908" y="-558.50726"></tspan></text><text xml:space="preserve" style="font-size:4.23333px;font-family:sans-serif;-inkscape-font-specification:sans-serif;fill:#fdf0e3;fill-opacity:1;stroke:#4a280d;stroke-width:15;stroke-linecap:round;stroke-linejoin:round;stroke-miterlimit:4;stroke-dasharray:none" x="-106.25206" y="-560.1264" id="SvgjsText1209"><tspan sodipodi:role="line" id="SvgjsTspan1208" style="stroke-width:15" x="-106.25206" y="-560.1264"></tspan></text><text xml:space="preserve" style="font-size:4.23333px;font-family:sans-serif;-inkscape-font-specification:sans-serif;fill:#fdf0e3;fill-opacity:1;stroke:#4a280d;stroke-width:5;stroke-linecap:round;stroke-linejoin:round;stroke-miterlimit:4;stroke-dasharray:none" x="-78.450752" y="-551.28766" id="SvgjsText1207"><tspan sodipodi:role="line" id="SvgjsTspan1206" style="stroke-width:5;stroke-miterlimit:4;stroke-dasharray:none" x="-78.450752" y="-551.28766"></tspan></text><text xml:space="preserve" style="font-size:4.23333px;font-family:sans-serif;-inkscape-font-specification:sans-serif;fill:#fdf0e3;fill-opacity:1;stroke:#4a280d;stroke-width:4.99999;stroke-linecap:round;stroke-linejoin:round;stroke-miterlimit:4;stroke-dasharray:none" x="-75.665482" y="-548.79803" id="SvgjsText1205"><tspan sodipodi:role="line" id="SvgjsTspan1204" style="stroke-width:5" x="-75.665482" y="-548.79803"></tspan></text><g id="SvgjsG1203"><g id="SvgjsG1202" transform="rotate(-30,-112.35409,-551.13016)"><g id="SvgjsG1201"><path sodipodi:type="star" style="fill:none;fill-opacity:1;stroke:#000000;stroke-width:21.7043;stroke-miterlimit:4;stroke-dasharray:none;stroke-opacity:1" id="SvgjsPath1200" sodipodi:sides="6" sodipodi:cx="-5551.2134" sodipodi:cy="-204.52565" sodipodi:r1="1701.6108" sodipodi:r2="1473.6381" sodipodi:arg1="1.0471976" sodipodi:arg2="1.5707963" inkscape:flatsided="true" inkscape:rounded="0" inkscape:randomized="0" inkscape:transform-center-x="1.5731476e-05" inkscape:transform-center-y="7.9344316e-05" transform="matrix(-0.00728526,0.01261844,-0.0125921,-0.00727005,-155.37152,-482.56941)" d="m -4700.408,1269.1126 -1701.6109,-10e-5 -850.8053,-1473.63823 850.8055,-1473.63817 1701.6108,10e-5 850.8054,1473.63823 z"></path><path style="fill:#b9b9b9;fill-opacity:1;stroke-width:0.0325723" d="m -125.60138,-537.5092 c -0.01,-0.0704 -0.008,-0.0709 0.0182,-0.005 0.0279,0.0693 0.0296,0.10374 0.004,0.0892 -0.006,-0.004 -0.0165,-0.0416 -0.0226,-0.0843 z m -1.16055,-5.00915 -0.0185,-0.10236 0.0351,0.0979 c 0.033,0.092 0.0369,0.12702 0.0124,0.1129 -0.006,-0.003 -0.0189,-0.0521 -0.0291,-0.10845 z m 8.91508,4.57153 c 0.004,-0.006 0.0416,-0.0165 0.0844,-0.0226 0.0704,-0.01 0.0709,-0.008 0.005,0.0182 -0.0693,0.0279 -0.10375,0.0296 -0.0892,0.004 z m 2.05751,-0.73539 c 0.022,-0.0347 0.0334,-0.0378 0.0291,-0.008 -0.004,0.0272 -0.0202,0.0529 -0.0362,0.0572 -0.016,0.004 -0.0128,-0.0179 0.007,-0.0494 z m -9.3429,-5.90002 c 0.0243,-0.042 0.0411,-0.0552 0.0375,-0.0293 -0.004,0.0259 -0.0235,0.0603 -0.0441,0.0764 -0.0206,0.0161 -0.0176,-0.005 0.007,-0.0471 z m 10.96964,5.82903 c 0.004,-0.006 0.0416,-0.0165 0.0844,-0.0226 0.0704,-0.01 0.0709,-0.008 0.005,0.0182 -0.0693,0.0279 -0.10374,0.0295 -0.0892,0.004 z m -10.67949,-6.33716 c 0.022,-0.0347 0.0334,-0.0378 0.0291,-0.008 -0.004,0.0272 -0.0202,0.0529 -0.0362,0.0572 -0.016,0.004 -0.0128,-0.0179 0.007,-0.0494 z m 5.09392,2.04464 c 0.022,-0.0348 0.0334,-0.0378 0.0291,-0.008 -0.004,0.0272 -0.0202,0.0529 -0.0362,0.0572 -0.016,0.004 -0.0128,-0.0179 0.007,-0.0494 z m 5.22126,1.57152 c 0.0498,-0.016 0.0975,-0.0252 0.10587,-0.0204 0.008,0.005 -0.0255,0.022 -0.0753,0.038 -0.0498,0.016 -0.0975,0.0252 -0.10587,0.0204 -0.008,-0.005 0.0255,-0.022 0.0753,-0.038 z m 2.22028,0.79296 c 0.034,-0.0588 0.0541,-0.0793 0.0448,-0.0454 -0.009,0.0339 -0.0371,0.082 -0.0618,0.10695 -0.0247,0.025 -0.0171,-0.003 0.0169,-0.0616 z m -11.39146,-8.00286 c 0.034,-0.0588 0.0541,-0.0793 0.0448,-0.0454 -0.009,0.0338 -0.0371,0.082 -0.0618,0.10694 -0.0247,0.025 -0.0171,-0.003 0.0169,-0.0615 z m 3.30646,2.0024 c 0.0422,0.0146 0.0971,0.0467 0.12187,0.0712 0.0248,0.0245 -0.01,0.0125 -0.0768,-0.0266 -0.067,-0.0392 -0.0873,-0.0592 -0.0451,-0.0446 z m -1.77734,-1.52699 c 0.10446,-0.0293 0.1968,-0.0494 0.2052,-0.0445 0.008,0.005 -0.0702,0.0328 -0.17464,0.0621 -0.10446,0.0293 -0.1968,0.0494 -0.2052,0.0445 -0.008,-0.005 0.0702,-0.0328 0.17464,-0.0621 z m 3.287,-1.03573 c 0.13129,-0.0362 0.24558,-0.0619 0.25398,-0.0571 0.008,0.005 -0.0921,0.0385 -0.22342,0.0747 -0.13128,0.0362 -0.24557,0.0619 -0.25398,0.0571 -0.008,-0.005 0.0921,-0.0385 0.22342,-0.0747 z m 1.94139,0.41285 c 0.004,-0.006 0.0416,-0.0165 0.0844,-0.0226 0.0704,-0.01 0.0709,-0.008 0.005,0.0182 -0.0693,0.0278 -0.10374,0.0295 -0.0892,0.004 z m -2.05552,-2.38074 c 0.0272,0.004 0.0529,0.0202 0.0572,0.0362 0.004,0.016 -0.0179,0.0128 -0.0494,-0.007 -0.0347,-0.022 -0.0378,-0.0334 -0.008,-0.0291 z m 1.80864,0.42016 c 0.0242,-0.042 0.0411,-0.0552 0.0375,-0.0293 -0.004,0.0259 -0.0235,0.0603 -0.0441,0.0764 -0.0206,0.0161 -0.0176,-0.005 0.007,-0.0471 z m 0.0923,-1.34214 -0.0185,-0.10236 0.0352,0.0979 c 0.033,0.092 0.0369,0.12702 0.0124,0.1129 -0.006,-0.003 -0.0189,-0.0521 -0.0291,-0.10845 z" id="SvgjsPath1199"></path><path style="fill:#a3a3a3;fill-opacity:1;stroke-width:0.0325723" d="m -125.96612,-544.27258 c 0.022,-0.0348 0.0334,-0.0378 0.0291,-0.008 -0.004,0.0272 -0.0202,0.0529 -0.0362,0.0572 -0.016,0.004 -0.0128,-0.0179 0.007,-0.0494 z m 10.12385,5.68204 c 0.022,-0.0347 0.0334,-0.0378 0.0291,-0.008 -0.004,0.0272 -0.0202,0.0529 -0.0362,0.0572 -0.016,0.004 -0.0128,-0.0179 0.007,-0.0494 z m 0.6737,-0.30799 c 0.0339,0.009 0.082,0.0371 0.10695,0.0618 0.025,0.0247 -0.003,0.0171 -0.0615,-0.0169 -0.0588,-0.034 -0.0793,-0.0541 -0.0454,-0.0448 z m -9.80851,-5.94043 c 0.0681,-0.11757 0.0992,-0.15876 0.0692,-0.0915 -0.03,0.0672 -0.0857,0.16341 -0.12374,0.21376 -0.0381,0.0503 -0.0135,-0.005 0.0545,-0.12222 z m 1.57253,0.49029 c -0.01,-0.0704 -0.008,-0.0709 0.0182,-0.005 0.0161,0.0401 0.0263,0.078 0.0226,0.0844 -0.0145,0.0251 -0.0303,-0.006 -0.0408,-0.0795 z m 10.77228,5.0809 c 0.0342,0.009 0.0752,0.0338 0.091,0.0541 0.0159,0.0203 -0.0121,0.0126 -0.0622,-0.0171 -0.0501,-0.0297 -0.063,-0.0464 -0.0288,-0.0369 z m -11.11601,-7.71713 c 0.022,-0.0347 0.0334,-0.0378 0.0291,-0.008 -0.004,0.0272 -0.0202,0.0529 -0.0362,0.0572 -0.016,0.004 -0.0128,-0.0179 0.007,-0.0494 z m 12.0442,2.43467 c 0.0297,-0.0501 0.0464,-0.063 0.0369,-0.0288 -0.009,0.0342 -0.0337,0.0752 -0.054,0.091 -0.0203,0.0159 -0.0126,-0.0121 0.0171,-0.0622 z m -4.71914,-3.51908 c 0.0498,-0.0161 0.0975,-0.0252 0.10587,-0.0204 0.008,0.005 -0.0255,0.022 -0.0753,0.038 -0.0498,0.016 -0.0975,0.0252 -0.10587,0.0204 -0.008,-0.005 0.0255,-0.022 0.0753,-0.038 z m 1.04544,0.0461 c 0.0272,0.004 0.0529,0.0202 0.0572,0.0362 0.004,0.016 -0.0179,0.0128 -0.0494,-0.007 -0.0348,-0.022 -0.0378,-0.0334 -0.008,-0.0291 z m 1.10526,-0.78886 c 0.0422,0.0146 0.0971,0.0467 0.12187,0.0712 0.0248,0.0245 -0.01,0.0125 -0.0768,-0.0266 -0.067,-0.0391 -0.0873,-0.0592 -0.0451,-0.0446 z m -1.80823,-5.39003 c 0.004,-0.006 0.0416,-0.0165 0.0843,-0.0226 0.0704,-0.01 0.0709,-0.008 0.005,0.0182 -0.0693,0.0278 -0.10374,0.0295 -0.0892,0.004 z m 2.1931,0.27677 c 0.0259,0.004 0.0603,0.0235 0.0764,0.0441 0.0161,0.0206 -0.005,0.0176 -0.0471,-0.007 -0.042,-0.0243 -0.0552,-0.0411 -0.0293,-0.0375 z m 0.16919,0.0964 c 0.0342,0.009 0.0752,0.0338 0.091,0.0541 0.0159,0.0203 -0.0121,0.0126 -0.0622,-0.0171 -0.0501,-0.0297 -0.063,-0.0464 -0.0288,-0.0369 z" id="SvgjsPath1198"></path><path style="fill:#8c8c8c;fill-opacity:1;stroke-width:0.0325723" d="m -115.89519,-538.49887 c 0.022,-0.0348 0.0334,-0.0378 0.0291,-0.008 -0.004,0.0272 -0.0202,0.0529 -0.0362,0.0572 -0.016,0.004 -0.0128,-0.0179 0.007,-0.0494 z m -7.29073,-9.95404 c 0.022,-0.0348 0.0334,-0.0378 0.0291,-0.008 -0.004,0.0272 -0.0202,0.0529 -0.0362,0.0572 -0.016,0.004 -0.0128,-0.0179 0.007,-0.0494 z m 0.10024,-0.16282 c 0.034,-0.0588 0.0541,-0.0793 0.0448,-0.0454 -0.009,0.0338 -0.0371,0.082 -0.0618,0.10695 -0.0247,0.025 -0.0171,-0.003 0.0169,-0.0616 z m 9.10864,-5.36207 c 0.0272,0.004 0.0529,0.0202 0.0572,0.0362 0.004,0.016 -0.0179,0.0128 -0.0494,-0.007 -0.0348,-0.022 -0.0378,-0.0334 -0.008,-0.0291 z" id="SvgjsPath1197"></path><path style="fill:#767676;fill-opacity:1;stroke-width:0.0325723" d="m -125.41955,-544.16073 c 0.022,-0.0348 0.0334,-0.0378 0.0291,-0.008 -0.004,0.0272 -0.0202,0.0529 -0.0362,0.0572 -0.016,0.004 -0.0128,-0.0179 0.007,-0.0494 z m 2.1807,-4.2005 c 0.022,-0.0348 0.0334,-0.0378 0.0291,-0.008 -0.004,0.0272 -0.0202,0.0529 -0.0362,0.0572 -0.016,0.004 -0.0128,-0.0179 0.007,-0.0494 z m 8.19767,1.10002 c -0.01,-0.0704 -0.008,-0.0709 0.0182,-0.005 0.0279,0.0693 0.0296,0.10374 0.004,0.0892 -0.006,-0.004 -0.0165,-0.0416 -0.0226,-0.0843 z m 0.21789,-0.0575 -0.0185,-0.10236 0.0351,0.0979 c 0.0193,0.0539 0.0324,0.10266 0.0291,0.10845 -0.0141,0.0245 -0.0283,-0.008 -0.0457,-0.10399 z m -3.45753,-3.64629 c -0.01,-0.0704 -0.008,-0.0709 0.0182,-0.005 0.0161,0.04 0.0263,0.078 0.0226,0.0843 -0.0145,0.0252 -0.0303,-0.006 -0.0408,-0.0795 z m 2.54089,-3.61568 c 0.0637,-0.0192 0.12275,-0.031 0.13115,-0.0261 0.008,0.005 -0.0369,0.0245 -0.1006,0.0438 -0.0637,0.0192 -0.12274,0.031 -0.13115,0.0261 -0.008,-0.005 0.0369,-0.0246 0.1006,-0.0438 z" id="SvgjsPath1196"></path><path style="fill:#606060;fill-opacity:1;stroke-width:0.0325723" d="m -114.23537,-539.12115 c 0.004,-0.006 0.0416,-0.0165 0.0844,-0.0226 0.0704,-0.01 0.0709,-0.008 0.005,0.0182 -0.0693,0.0278 -0.10375,0.0295 -0.0892,0.004 z m -5.33638,-4.23015 c 0.022,-0.0347 0.0334,-0.0378 0.0291,-0.008 -0.004,0.0272 -0.0202,0.0529 -0.0362,0.0572 -0.016,0.004 -0.0128,-0.0179 0.007,-0.0494 z m 7.56339,2.77776 c 0.022,-0.0348 0.0334,-0.0378 0.0291,-0.008 -0.004,0.0272 -0.0202,0.0529 -0.0362,0.0572 -0.016,0.004 -0.0128,-0.0179 0.007,-0.0494 z m -0.10829,-3.19972 c 0.022,-0.0347 0.0334,-0.0378 0.0291,-0.008 -0.004,0.0272 -0.0202,0.0529 -0.0362,0.0572 -0.016,0.004 -0.0128,-0.0179 0.007,-0.0494 z m -0.18681,-0.31156 c 0.022,-0.0347 0.0334,-0.0378 0.0291,-0.008 -0.004,0.0272 -0.0202,0.0529 -0.0362,0.0572 -0.016,0.004 -0.0128,-0.0179 0.007,-0.0494 z m 0.45617,-0.22555 c 0.022,-0.0347 0.0334,-0.0378 0.0291,-0.008 -0.004,0.0272 -0.0202,0.0529 -0.0362,0.0572 -0.016,0.004 -0.0128,-0.0179 0.007,-0.0494 z m -7.62442,-6.76504 c 0.022,-0.0347 0.0334,-0.0378 0.0291,-0.008 -0.004,0.0272 -0.0202,0.0529 -0.0362,0.0572 -0.016,0.004 -0.0128,-0.0179 0.007,-0.0494 z m 0.0705,-0.48056 c 0.004,-0.006 0.0416,-0.0165 0.0844,-0.0226 0.0704,-0.01 0.0709,-0.008 0.005,0.0182 -0.0693,0.0279 -0.10375,0.0296 -0.0892,0.004 z m 1.27715,0.4981 -0.0185,-0.10236 0.0352,0.0979 c 0.033,0.092 0.0369,0.12702 0.0124,0.1129 -0.006,-0.003 -0.0189,-0.0521 -0.0291,-0.10845 z m 8.76565,2.35146 c -0.01,-0.0704 -0.008,-0.0709 0.0182,-0.005 0.0161,0.04 0.0263,0.078 0.0226,0.0843 -0.0145,0.0251 -0.0303,-0.006 -0.0408,-0.0795 z m 1.98467,-0.11718 -0.0256,-0.1268 0.0413,0.1226 c 0.0227,0.0674 0.0387,0.12707 0.0355,0.13254 -0.0138,0.024 -0.0273,-0.01 -0.0512,-0.12834 z m -0.0775,-0.28919 -0.0256,-0.12681 0.0413,0.1226 c 0.0386,0.11459 0.0438,0.15059 0.0198,0.13675 -0.005,-0.003 -0.0215,-0.0628 -0.0355,-0.13254 z m -8.66829,-5.23393 c 0.004,-0.006 0.0416,-0.0165 0.0844,-0.0226 0.0704,-0.01 0.0709,-0.008 0.005,0.0182 -0.0693,0.0278 -0.10375,0.0295 -0.0892,0.004 z m 0.20049,-0.80595 c 0.0498,-0.0161 0.0975,-0.0252 0.10587,-0.0204 0.008,0.005 -0.0255,0.022 -0.0753,0.038 -0.0498,0.0161 -0.0975,0.0252 -0.10588,0.0204 -0.008,-0.005 0.0255,-0.022 0.0753,-0.038 z m 1.78918,1.08664 c 0.0272,0.004 0.0529,0.0202 0.0572,0.0362 0.004,0.016 -0.0179,0.0128 -0.0494,-0.007 -0.0347,-0.022 -0.0378,-0.0334 -0.008,-0.0291 z m 3.27975,-0.38803 c 0.0272,0.004 0.0529,0.0202 0.0572,0.0362 0.004,0.016 -0.0179,0.0128 -0.0494,-0.007 -0.0348,-0.022 -0.0378,-0.0334 -0.008,-0.0291 z" id="SvgjsPath1195"></path><path style="fill:#494949;fill-opacity:1;stroke-width:0.0325723" d="m -126.64786,-543.2979 c 0.0243,-0.042 0.0411,-0.0552 0.0375,-0.0293 -0.004,0.0259 -0.0235,0.0603 -0.0441,0.0764 -0.0206,0.0161 -0.0176,-0.005 0.007,-0.0471 z m 9.19522,5.26812 c 0.0498,-0.0161 0.0975,-0.0252 0.10587,-0.0204 0.008,0.005 -0.0255,0.022 -0.0753,0.038 -0.0498,0.0161 -0.0975,0.0252 -0.10587,0.0204 -0.008,-0.005 0.0255,-0.022 0.0753,-0.038 z m -0.23812,-1.56348 c 0.0498,-0.0161 0.0975,-0.0252 0.10587,-0.0204 0.008,0.005 -0.0255,0.0219 -0.0753,0.038 -0.0498,0.016 -0.0975,0.0252 -0.10587,0.0204 -0.008,-0.005 0.0255,-0.022 0.0753,-0.038 z m 1.49945,0.76046 c 0.022,-0.0348 0.0334,-0.0378 0.0291,-0.008 -0.004,0.0272 -0.0202,0.0529 -0.0362,0.0572 -0.016,0.004 -0.0128,-0.0179 0.007,-0.0494 z m -9.56576,-5.72311 c 0.0297,-0.0501 0.0464,-0.063 0.0369,-0.0288 -0.009,0.0342 -0.0337,0.0752 -0.0541,0.091 -0.0203,0.0159 -0.0126,-0.0121 0.0171,-0.0622 z m 0.42573,0.24239 c 0.022,-0.0347 0.0334,-0.0378 0.0291,-0.008 -0.004,0.0272 -0.0202,0.0529 -0.0362,0.0572 -0.016,0.004 -0.0128,-0.0179 0.007,-0.0494 z m -0.21964,-0.59195 c 0.0534,-0.0924 0.0809,-0.12695 0.0612,-0.0767 -0.0197,0.0503 -0.0633,0.12589 -0.097,0.16807 -0.0337,0.0422 -0.0176,0.001 0.0358,-0.0914 z m 6.04192,1.45116 c 0.0243,-0.042 0.0411,-0.0552 0.0375,-0.0293 -0.004,0.0259 -0.0235,0.0603 -0.0441,0.0764 -0.0206,0.0161 -0.0176,-0.005 0.007,-0.0471 z m 5.45864,3.09543 c 0.004,-0.006 0.0416,-0.0165 0.0844,-0.0226 0.0704,-0.01 0.0709,-0.008 0.005,0.0182 -0.0693,0.0279 -0.10375,0.0296 -0.0892,0.004 z m -0.24411,-1.20026 c 0.004,-0.006 0.0416,-0.0165 0.0843,-0.0226 0.0704,-0.01 0.0709,-0.008 0.005,0.0182 -0.0693,0.0278 -0.10374,0.0295 -0.0892,0.004 z m 2.20999,1.12835 c 0.034,-0.0588 0.0541,-0.0793 0.0449,-0.0454 -0.009,0.0339 -0.0371,0.082 -0.0618,0.10695 -0.0247,0.025 -0.0171,-0.003 0.0169,-0.0616 z m -8.51986,-6.37277 c 0.0271,0.004 0.0529,0.0202 0.0572,0.0362 0.004,0.016 -0.0179,0.0128 -0.0494,-0.007 -0.0348,-0.022 -0.0378,-0.0334 -0.008,-0.0291 z m -0.74179,-0.80787 c 0.0243,-0.042 0.0411,-0.0552 0.0375,-0.0293 -0.004,0.0259 -0.0235,0.0603 -0.0441,0.0764 -0.0206,0.0161 -0.0176,-0.005 0.007,-0.0471 z m 1.21905,0.75748 c 0.0272,0.004 0.0529,0.0202 0.0572,0.0362 0.004,0.016 -0.0179,0.0128 -0.0494,-0.007 -0.0348,-0.022 -0.0378,-0.0334 -0.008,-0.0291 z m -2.81179,-2.02675 c 0.022,-0.0348 0.0334,-0.0378 0.0291,-0.008 -0.004,0.0272 -0.0202,0.0529 -0.0362,0.0572 -0.016,0.004 -0.0128,-0.0179 0.007,-0.0494 z m 10.45387,5.75373 c 0.0297,-0.0501 0.0464,-0.063 0.0369,-0.0288 -0.009,0.0342 -0.0337,0.0752 -0.0541,0.091 -0.0203,0.0159 -0.0126,-0.0121 0.0171,-0.0622 z m -9.11155,-5.46766 c 0.022,-0.0347 0.0334,-0.0378 0.0291,-0.008 -0.004,0.0272 -0.0202,0.0529 -0.0362,0.0572 -0.016,0.004 -0.0128,-0.0179 0.007,-0.0494 z m 9.41915,4.93226 c 0.0243,-0.042 0.0411,-0.0552 0.0375,-0.0293 -0.004,0.0259 -0.0235,0.0603 -0.0441,0.0764 -0.0206,0.0161 -0.0176,-0.005 0.007,-0.0471 z m 0.26936,-0.53711 c 0.0243,-0.042 0.0411,-0.0552 0.0375,-0.0293 -0.004,0.0259 -0.0235,0.0603 -0.0441,0.0764 -0.0206,0.0161 -0.0176,-0.005 0.007,-0.0471 z m -8.06481,-4.77845 c 0.0498,-0.016 0.0975,-0.0252 0.10587,-0.0204 0.008,0.005 -0.0255,0.0219 -0.0753,0.038 -0.0498,0.016 -0.0975,0.0252 -0.10587,0.0204 -0.008,-0.005 0.0255,-0.0219 0.0753,-0.038 z m 7.94858,4.34465 c 0.0243,-0.042 0.0411,-0.0552 0.0375,-0.0293 -0.004,0.0259 -0.0235,0.0603 -0.0441,0.0764 -0.0206,0.0161 -0.0176,-0.005 0.007,-0.0471 z m -7.34479,-4.29663 c 0.004,-0.006 0.0416,-0.0165 0.0844,-0.0226 0.0704,-0.01 0.0709,-0.008 0.005,0.0182 -0.0693,0.0279 -0.10375,0.0296 -0.0892,0.004 z m 2.30679,0.16807 c 0.009,-0.0158 0.035,-0.0293 0.0576,-0.03 0.0235,-7.2e-4 0.0215,0.0145 -0.005,0.0357 -0.0509,0.0412 -0.0784,0.0382 -0.053,-0.006 z m 7.3456,2.66658 c 0.022,-0.0347 0.0334,-0.0378 0.0291,-0.008 -0.004,0.0272 -0.0202,0.0529 -0.0362,0.0572 -0.016,0.004 -0.0128,-0.0179 0.007,-0.0494 z m 0.17642,-0.30557 c 0.022,-0.0347 0.0334,-0.0378 0.0291,-0.008 -0.004,0.0272 -0.0202,0.0529 -0.0362,0.0572 -0.016,0.004 -0.0128,-0.0179 0.007,-0.0494 z m -8.08743,-5.40944 -0.0256,-0.1268 0.0413,0.1226 c 0.0386,0.11458 0.0438,0.15059 0.0198,0.13675 -0.005,-0.003 -0.0215,-0.0628 -0.0355,-0.13255 z m 8.30809,3.24845 c -0.01,-0.0704 -0.008,-0.0709 0.0182,-0.005 0.0161,0.04 0.0263,0.078 0.0226,0.0843 -0.0145,0.0251 -0.0303,-0.006 -0.0408,-0.0795 z m 2.49018,-0.25312 -0.0185,-0.10236 0.0352,0.0979 c 0.033,0.092 0.0369,0.12702 0.0124,0.1129 -0.006,-0.003 -0.0189,-0.0521 -0.0291,-0.10845 z m -0.67498,-0.49156 c -0.01,-0.0704 -0.008,-0.0709 0.0182,-0.005 0.0279,0.0693 0.0296,0.10374 0.004,0.0892 -0.006,-0.004 -0.0165,-0.0416 -0.0226,-0.0843 z m 0.53291,-0.0386 -0.0185,-0.10236 0.0351,0.0979 c 0.033,0.092 0.0369,0.12703 0.0124,0.11291 -0.006,-0.003 -0.0189,-0.0521 -0.0291,-0.10845 z m -6.85618,-4.75018 c 0.0272,0.004 0.0529,0.0202 0.0572,0.0362 0.004,0.016 -0.0179,0.0128 -0.0494,-0.007 -0.0348,-0.022 -0.0378,-0.0334 -0.008,-0.0291 z m 0.51947,0.29992 c 0.0272,0.004 0.0529,0.0202 0.0572,0.0362 0.004,0.016 -0.0179,0.0128 -0.0494,-0.007 -0.0348,-0.022 -0.0378,-0.0334 -0.008,-0.0291 z m 2.57888,-0.58989 c 0.042,0.0145 0.1039,0.0503 0.13751,0.0794 0.0336,0.0291 -7.7e-4,0.0172 -0.0764,-0.0265 -0.0756,-0.0437 -0.10313,-0.0675 -0.0611,-0.0529 z" id="SvgjsPath1194"></path><path style="fill:#000000;fill-opacity:1;stroke-width:0.0325723" d="m -126.95236,-537.53544 c 0.0423,-1.28107 0.2626,-3.03551 0.502,-3.99835 l 0.0709,-0.28503 -0.13024,-0.1911 c -0.15799,-0.23181 -0.28186,-0.64999 -0.25968,-0.87661 0.0184,-0.1883 0.18471,-0.50389 0.42497,-0.80659 0.36776,-0.46333 0.69885,-0.99373 1.09835,-1.75953 0.40214,-0.77087 0.80851,-1.59742 0.82603,-1.68017 0.0248,-0.11691 -2.02162,-0.53539 -3.03883,-0.62144 -0.22215,-0.0188 -0.40875,-0.037 -0.41467,-0.0404 -0.006,-0.003 0.0533,-0.11716 0.13157,-0.25276 l 0.14234,-0.24655 0.37841,0.0326 c 0.7957,0.0686 1.96838,0.28366 2.66752,0.48927 0.19381,0.057 0.35895,0.10188 0.36697,0.0997 0.008,-0.002 0.0873,-0.16318 0.17621,-0.35785 0.20651,-0.45222 0.85735,-1.51615 1.1968,-1.95639 0.89583,-1.16181 1.47294,-1.6252 2.73353,-2.19491 0.68796,-0.31091 1.25565,-0.73494 2.18384,-1.63118 0.90984,-0.87854 1.2788,-1.1189 2.02168,-1.31703 0.55772,-0.14874 1.05936,-0.1846 1.85229,-0.13241 0.99928,0.0658 1.7859,0.22901 2.5358,0.52624 0.5523,0.2189 1.4571,0.77941 1.90013,1.17709 1.40102,1.25761 2.36436,2.95196 2.80744,4.93784 0.51915,2.32687 0.29576,4.5347 -0.67254,6.64685 -0.57801,1.26081 -1.6388,2.52582 -2.63249,3.13928 -0.24723,0.15262 -0.47733,0.25592 -0.97963,0.43977 -0.14253,0.0522 -0.25452,0.10877 -0.24888,0.12579 0.006,0.017 0.12995,0.14119 0.27624,0.27593 0.91879,0.84626 1.90815,2.03725 2.55391,3.07441 l 0.19554,0.31407 -0.13074,0.22645 c -0.0719,0.12455 -0.13866,0.22189 -0.14833,0.2163 -0.01,-0.006 -0.0785,-0.11652 -0.15305,-0.24653 -0.19445,-0.33933 -0.66501,-1.04564 -0.94794,-1.42286 -0.95578,-1.2743 -2.02757,-2.31193 -3.35177,-3.24494 l -0.20284,-0.14292 -0.17408,0.11653 c -0.75019,0.50216 -1.64002,0.48935 -2.01104,-0.029 -0.0546,-0.0762 -0.10875,-0.13604 -0.12042,-0.13291 -0.0117,0.003 -0.062,0.11085 -0.11177,0.23938 -0.25937,0.66938 -0.55685,0.98903 -1.16402,1.2508 -0.19381,0.0836 -0.40438,0.22656 -0.82498,0.56025 -0.31062,0.24642 -1.10192,0.85295 -1.75845,1.34784 -0.65654,0.49488 -1.47723,1.1211 -1.82378,1.39161 l -0.63008,0.49182 -0.11483,-0.0536 c -0.0684,-0.0319 -0.10695,-0.0673 -0.0954,-0.0874 0.0624,-0.10812 2.27855,-1.79538 3.74396,-2.85048 0.37136,-0.26738 0.69475,-0.50129 0.71864,-0.5198 0.0239,-0.0185 -0.15012,0.002 -0.38668,0.0458 -0.23656,0.0437 -0.67541,0.10739 -0.97521,0.14151 -1.3174,0.14993 -4.70915,0.29863 -6.19614,0.27164 l -0.27135,-0.005 -0.0866,-0.24654 c -0.17594,-0.50119 -0.28848,-2.1553 -0.22272,-3.27356 0.0139,-0.23582 0.0159,-0.46372 0.004,-0.50644 -0.0212,-0.0792 -0.42198,-0.53076 -0.47925,-0.54002 -0.0395,-0.006 -0.30516,1.72911 -0.3944,2.57628 -0.0721,0.68414 -0.11012,1.24237 -0.12531,1.83849 -0.005,0.20759 -0.0124,0.38224 -0.0158,0.38812 -0.003,0.006 -0.0578,-0.0191 -0.12096,-0.0556 l -0.11479,-0.0663 z m 2.66812,0.15322 c 1.55345,-0.0345 3.75549,-0.17042 4.8374,-0.29852 1.68689,-0.19971 2.52455,-0.41684 2.94518,-0.76342 0.14273,-0.1176 0.20732,-0.20945 0.52622,-0.74826 0.27709,-0.46818 0.38042,-0.62045 0.43461,-0.64048 0.096,-0.0355 0.0984,-0.033 0.20063,0.20695 0.17435,0.40918 0.48033,0.58626 0.93574,0.54156 0.68266,-0.067 1.67646,-0.81179 2.12749,-1.59441 0.16566,-0.28745 0.20745,-0.46402 0.15561,-0.65748 -0.0342,-0.12778 -0.067,-0.173 -0.16716,-0.23084 -0.34988,-0.202 -1.22383,-0.18337 -2.08894,0.0445 -0.33427,0.0881 -0.5691,0.10482 -0.53043,0.0378 0.007,-0.0113 0.12368,-0.084 0.26036,-0.16162 0.42768,-0.24281 1.01616,-0.64335 1.23844,-0.84295 0.40965,-0.36784 0.60306,-0.63847 1.03567,-1.44918 0.49764,-0.9326 0.59125,-1.08135 0.7765,-1.23399 0.0833,-0.0687 0.29353,-0.18034 0.4671,-0.24816 0.60015,-0.23453 0.88439,-0.4721 1.18204,-0.98797 0.40698,-0.70536 0.47838,-1.42334 0.22677,-2.28033 -0.45998,-1.5667 -1.81728,-3.4948 -3.28483,-4.66624 -0.36082,-0.28802 -1.27389,-0.80461 -1.54804,-0.87584 -0.70181,-0.18235 -1.45989,-0.0786 -2.26423,0.31 -0.25502,0.1232 -0.64365,0.43542 -0.86913,0.69825 l -0.0724,0.0844 0.18544,0.18189 c 0.44935,0.44074 0.65026,1.21239 0.48789,1.8739 -0.0457,0.18637 -0.1916,0.44832 -0.25981,0.4666 -0.064,0.0172 -0.10914,-0.13562 -0.15892,-0.53805 -0.0968,-0.78236 -0.27392,-1.20496 -0.61245,-1.461 l -0.14179,-0.10725 -0.22615,0.18895 c -0.32793,0.27399 -0.89606,0.63449 -1.24866,0.79232 -1.27152,0.56918 -1.75698,0.92938 -2.46511,1.82903 -0.68211,0.86659 -1.07364,1.55292 -1.76373,3.09171 -0.24237,0.54046 -0.42697,0.89275 -0.90147,1.72039 -0.53348,0.93054 -0.64025,1.09818 -1.00819,1.58295 -0.47802,0.62979 -0.48527,0.64938 -0.37055,1.00156 0.0794,0.24381 0.2149,0.42538 0.58979,0.79045 0.15028,0.14633 0.28648,0.31562 0.34572,0.42973 0.23038,0.44367 0.28552,0.50473 0.63545,0.70362 0.23704,0.13472 0.40156,0.20386 0.62298,0.26177 0.19612,0.0513 0.39462,0.13097 0.57011,0.22885 l 0.26923,0.15014 -0.15837,0.046 c -0.51774,0.15025 -1.68141,-0.20314 -2.03711,-0.61864 -0.0573,-0.0669 -0.11262,-0.11945 -0.12293,-0.11668 -0.0339,0.009 0.10598,1.9309 0.1898,2.60744 l 0.0821,0.66274 0.35193,-0.003 c 0.19356,-0.002 0.47264,-0.006 0.62019,-0.009 z m 2.56958,-2.39068 c 0.27417,0.0368 1.80196,0.0949 2.50299,0.0951 0.29509,1.4e-4 0.73839,0.006 0.9851,0.0121 0.24672,0.007 0.54258,0.003 0.65746,-0.008 0.11488,-0.0108 0.21109,-0.0114 0.21379,-10e-4 0.008,0.0285 -0.9724,0.23007 -1.23309,0.25369 -0.78833,0.0714 -2.10188,-0.0324 -2.9015,-0.22926 -0.39312,-0.0968 -0.51061,-0.16081 -0.22475,-0.12245 z m -2.67713,-3.19677 c -0.14015,-0.15759 -0.21841,-0.28004 -0.24617,-0.38515 l -0.0407,-0.1541 0.12506,0.17152 c 0.0688,0.0943 0.17449,0.24468 0.23491,0.3341 0.0604,0.0894 0.13547,0.19758 0.16679,0.24038 0.10702,0.14627 -0.0341,0.0246 -0.23988,-0.20675 z m 1.04776,-1.25442 c -0.12747,-0.35171 -0.17752,-1.17589 -0.10079,-1.65971 0.0612,-0.38589 0.21455,-0.78709 0.32772,-0.85738 0.11002,-0.0683 0.19357,-0.0171 0.45245,0.27755 0.38782,0.44138 1.3987,1.76782 1.72555,2.26421 0.26678,0.40517 0.32208,0.51263 0.30603,0.59467 -0.025,0.12793 -0.1518,0.17106 -0.47027,0.16001 -0.47327,-0.0164 -1.00124,-0.14598 -1.67395,-0.41075 -0.45811,-0.1803 -0.51096,-0.21467 -0.56674,-0.3686 z m 0.46188,-0.0324 c 0.014,-0.0242 -0.14203,-0.24939 -0.19319,-0.27893 -0.011,-0.006 -0.008,0.0415 0.008,0.10628 0.0264,0.11257 0.15248,0.22988 0.18552,0.17265 z m 1.73931,0.46294 c 0.0381,0.002 0.0762,-0.008 0.0846,-0.0231 0.0199,-0.0344 -0.26798,-0.45476 -1.02787,-1.50112 -0.33706,-0.46413 -0.65883,-0.914 -0.71504,-0.99971 -0.0562,-0.0857 -0.11075,-0.16075 -0.12119,-0.16678 -0.0247,-0.0142 -0.12509,0.25306 -0.12868,0.34247 -0.008,0.19177 0.62362,1.19482 1.07816,1.71301 0.40004,0.45606 0.62007,0.62444 0.83001,0.63519 z m 6.22659,3.9817 c -0.11784,-0.11516 -0.0603,-0.12893 0.24213,-0.058 0.47367,0.11117 0.67426,0.10731 0.86417,-0.0166 0.14615,-0.0954 0.73116,-0.63593 1.18862,-1.09832 0.1057,-0.10683 0.21739,-0.20736 0.24821,-0.22338 0.0443,-0.023 0.0455,-0.0182 0.006,0.0233 -0.0277,0.0288 -0.18911,0.21065 -0.3587,0.40404 -0.45575,0.51971 -0.91895,0.99501 -1.05683,1.08446 -0.0668,0.0433 -0.18298,0.0897 -0.25816,0.10309 -0.21816,0.0388 -0.7469,-0.0933 -0.87513,-0.21861 z m -4.6623,-3.50726 c 0.29821,-0.52666 0.46599,-0.94641 0.55263,-1.38254 0.0664,-0.33404 0.0851,-0.24649 0.0344,0.16094 -0.0795,0.63896 -0.26596,1.14554 -0.51567,1.40081 -0.36073,0.36876 -0.36936,0.3471 -0.0714,-0.17921 z m 5.21423,3.01003 c 0.008,-0.0133 0.1185,-0.0807 0.24624,-0.14978 0.25189,-0.13623 0.2604,-0.15119 0.24082,-0.42347 -0.0187,-0.26006 0.004,-0.25223 0.0736,0.0255 0.0882,0.35109 0.0492,0.41366 -0.31521,0.5061 -0.1427,0.0362 -0.25315,0.0549 -0.24546,0.0416 z m -9.38405,-6.74544 c 0.0735,-0.13733 0.39877,-0.48842 0.59108,-0.63805 0.23494,-0.18281 0.74099,-0.42857 1.03999,-0.50508 0.26289,-0.0672 0.28185,-0.0589 0.10421,0.0461 -0.6729,0.39764 -1.56273,0.96788 -1.65997,1.06377 -0.0965,0.0951 -0.11215,0.10205 -0.0753,0.0332 z m 2.93954,0.12434 c 0.0235,-0.0408 0.22167,-0.0731 0.33732,-0.055 0.2083,0.0326 0.47409,0.21572 0.60142,0.41445 l 0.11499,0.17947 -0.18014,-0.0761 c -0.30008,-0.12679 -0.88782,-0.43816 -0.87359,-0.46281 z m 1.52851,0.68469 c 0.0867,-0.0296 0.2408,-0.1644 0.31567,-0.2761 0.10826,-0.16152 0.13408,-0.24354 0.1233,-0.39167 -0.0134,-0.18384 0.006,-0.18186 0.086,0.009 0.12726,0.30471 -3.2e-4,0.55363 -0.33769,0.65891 -0.18798,0.0587 -0.35887,0.0589 -0.18725,3.3e-4 z m -2.18597,-1.38799 c -0.0887,-0.34175 -0.0674,-0.49356 0.0591,-0.42052 0.12895,0.0744 0.15421,0.21672 0.0732,0.41253 -0.0405,0.0979 -0.0766,0.17923 -0.0802,0.1807 -0.004,10e-4 -0.0271,-0.0762 -0.0521,-0.17271 z m -0.19395,-0.70171 c 0.0295,-0.23919 0.19536,-0.40468 0.45601,-0.45504 0.14156,-0.0273 0.1574,-0.015 0.0502,0.039 -0.0931,0.047 -0.35395,0.29668 -0.45662,0.43713 l -0.0628,0.086 z m 2.81064,0.892 c -0.0108,-0.11247 0.009,-0.17994 0.1025,-0.34113 0.10104,-0.175 0.15179,-0.22454 0.39338,-0.38402 0.26513,-0.17501 0.67841,-0.36784 1.0948,-0.51081 l 0.19353,-0.0664 -0.24823,0.12158 c -0.48452,0.23729 -0.92493,0.53667 -1.19332,0.81118 -0.14768,0.15105 -0.29003,0.39891 -0.27607,0.48069 0.007,0.0418 -5.8e-4,0.0595 -0.0209,0.0478 -0.0177,-0.0102 -0.0383,-0.0817 -0.0457,-0.15881 z m -1.69208,-1.39636 c 1.40882,-0.30081 2.17326,-0.50083 2.45942,-0.64353 0.24304,-0.1212 0.17535,-0.0358 -0.0976,0.12321 -0.49009,0.28541 -1.27861,0.4983 -1.98354,0.53552 -0.48941,0.0258 -0.55763,0.0231 -0.37828,-0.0152 z m 4.34422,2.14348 c -0.29314,-0.26651 -0.60585,-0.73125 -0.66592,-0.98964 l -0.0277,-0.11914 0.1468,-0.0996 c 0.33077,-0.22453 1.00269,-0.26324 1.37419,-0.0792 0.30994,0.15356 0.44478,0.32917 0.54682,0.71215 0.0907,0.34037 0.09,0.82691 -0.001,0.98528 -0.0703,0.1218 -0.17688,0.11668 -0.59463,-0.0286 -0.52161,-0.1814 -0.60122,-0.2204 -0.7781,-0.38122 z m 0.84664,0.22062 c 0.16814,0.0545 0.31588,0.0963 0.3283,0.093 0.0392,-0.0105 0.0688,-0.31406 0.0539,-0.55301 -0.0181,-0.28973 -0.13675,-0.59211 -0.2911,-0.74186 -0.1504,-0.14591 -0.35711,-0.21472 -0.67773,-0.2256 -0.21394,-0.007 -0.82187,0.0983 -0.85037,0.1477 -0.0119,0.0206 0.20234,0.35855 0.35894,0.56615 0.0755,0.10013 0.0772,0.10047 0.0951,0.019 0.0462,-0.2104 0.22653,-0.36021 0.3998,-0.33221 0.13403,0.0217 0.34555,0.21568 0.36431,0.33415 0.0256,0.16186 -0.0929,0.32485 -0.28305,0.38928 l -0.16266,0.0551 0.17942,0.0746 c 0.0987,0.0411 0.317,0.11919 0.48514,0.17364 z m 2.01546,-0.20283 c -0.0295,-0.046 -0.12303,-0.18563 -0.20794,-0.31025 -0.0849,-0.12462 -0.26579,-0.40129 -0.40195,-0.61483 -0.45843,-0.71895 -0.72253,-0.89378 -1.61066,-1.06624 -0.28774,-0.0559 -0.51927,-0.10833 -0.51451,-0.11658 0.0281,-0.0487 0.46566,-0.1984 0.64406,-0.22036 0.73221,-0.0902 1.35786,0.20146 1.8217,0.84912 0.23556,0.32891 0.41854,0.78349 0.43539,1.0816 0.005,0.094 -0.0778,0.4797 -0.10363,0.48082 -0.005,3.2e-4 -0.033,-0.0373 -0.0625,-0.0833 z m -6.00002,-3.64377 c -0.23718,-0.23583 -0.35798,-0.44426 -0.44453,-0.76697 -0.11008,-0.41044 1.3e-4,-0.5707 0.46023,-0.66931 0.56069,-0.12016 1.00179,0.12258 1.17193,0.64493 0.0911,0.27982 0.11151,0.52206 0.0638,0.75822 -0.0717,0.35442 -0.14387,0.3973 -0.59183,0.35154 -0.29708,-0.0303 -0.43853,-0.0986 -0.65956,-0.31841 z m 0.73385,0.13379 c 0.33124,0.0343 0.3844,-0.006 0.3917,-0.29604 0.0187,-0.74437 -0.37025,-1.19274 -0.96777,-1.11553 -0.1071,0.0138 -0.26546,0.0586 -0.35191,0.0994 l -0.15719,0.0742 0.0611,0.19105 c 0.0932,0.29174 0.10713,0.30586 0.17875,0.18181 0.0397,-0.0688 0.10546,-0.12211 0.18488,-0.14992 0.10231,-0.0358 0.14749,-0.0292 0.26591,0.0392 0.1236,0.0714 0.14704,0.10336 0.17543,0.23948 0.0285,0.13646 0.021,0.17232 -0.0565,0.27288 -0.0595,0.0772 -0.12933,0.12333 -0.20942,0.13847 l -0.12014,0.0227 0.0544,0.0692 c 0.10266,0.13071 0.27775,0.20478 0.55085,0.23305 z m 7.09001,11.38194 c 0.36049,-0.0959 0.8321,-0.28691 1.10949,-0.4493 0.42251,-0.24736 1.05008,-0.82866 1.53096,-1.41807 0.30372,-0.37229 0.8901,-1.37009 1.0816,-1.84048 0.86683,-2.12931 0.98944,-4.22602 0.37912,-6.48347 -0.46369,-1.71509 -1.31927,-3.16149 -2.49049,-4.21027 -0.4498,-0.40278 -1.23245,-0.89013 -1.81917,-1.1328 -0.37277,-0.15417 -0.4551,-0.17387 -0.93075,-0.22268 -1.98888,-0.20406 -2.82528,-0.17452 -3.47113,0.12261 -0.47601,0.21899 -0.49901,0.2687 -0.0645,0.1394 0.70646,-0.21023 1.31076,-0.19845 1.95688,0.0381 0.3761,0.13772 1.15378,0.60812 1.53794,0.93027 0.85761,0.71917 1.69819,1.67298 2.36293,2.68123 1.21593,1.84429 1.42419,3.17211 0.69386,4.4239 -0.35607,0.61031 -0.70714,0.90115 -1.34917,1.11767 -0.49611,0.16732 -0.55967,0.23233 -0.92643,0.94763 -0.56262,1.09729 -0.88595,1.55642 -1.40877,2.00043 -0.14922,0.12673 -0.27355,0.23428 -0.27629,0.23901 -0.003,0.005 0.0979,-0.003 0.22354,-0.0167 0.52908,-0.0586 0.92803,-0.007 1.21112,0.15682 0.42669,0.24683 0.45111,0.6866 0.0744,1.33915 -0.19056,0.33006 -0.45664,0.65976 -0.71092,0.88092 l -0.15765,0.13711 0.3251,0.19172 c 0.17881,0.10545 0.39469,0.24585 0.47975,0.31199 0.27983,0.21762 0.2656,0.21504 0.63863,0.11578 z" id="SvgjsPath1193"></path><path style="fill:#000000;stroke:#000000;stroke-width:0.0878829;stroke-dasharray:none;paint-order:fill markers stroke" d="m -112.278,-539.02415 c -0.1489,-0.1101 -0.36149,-0.24463 -0.47242,-0.29896 -0.19424,-0.0951 -0.19955,-0.10012 -0.14384,-0.13473 0.11628,-0.0722 0.41456,-0.39815 0.64835,-0.70845 0.22343,-0.29655 0.2459,-0.33601 0.33101,-0.58116 0.11252,-0.32412 0.12958,-0.5019 0.0668,-0.69626 -0.0569,-0.17604 -0.14673,-0.26096 -0.41565,-0.39282 -0.24768,-0.12144 -0.51104,-0.15845 -0.93531,-0.13143 -0.17798,0.0113 -0.31989,0.0142 -0.31536,0.006 0.005,-0.008 0.12322,-0.11811 0.26374,-0.24502 0.47548,-0.4294 0.54921,-0.53093 1.19353,-1.64347 0.66737,-1.15234 0.58881,-1.06269 1.09413,-1.24867 0.52286,-0.19245 0.80526,-0.38855 1.1064,-0.76827 0.37283,-0.47012 0.61322,-1.08847 0.65107,-1.67469 0.0188,-0.29048 -0.0402,-0.90431 -0.10717,-1.11543 -0.4172,-1.31568 -1.62101,-3.08202 -2.91751,-4.28082 -0.54562,-0.50451 -0.82642,-0.71465 -1.3761,-1.02984 -0.72761,-0.41721 -1.32057,-0.5608 -1.96713,-0.47637 -0.13256,0.0173 -0.29842,0.0378 -0.36858,0.0456 -0.0701,0.008 -0.18479,0.0404 -0.25475,0.0724 -0.14578,0.0667 -0.22249,0.0525 -0.0895,-0.0166 0.26521,-0.13782 0.76809,-0.27838 1.10868,-0.30989 0.71251,-0.0659 2.7156,0.0744 3.16542,0.22165 0.74434,0.24373 1.69378,0.83548 2.31749,1.44443 1.13041,1.10364 1.90965,2.53702 2.33951,4.30342 0.44978,1.84821 0.39473,3.62773 -0.16616,5.37209 -0.244,0.75884 -0.30571,0.89519 -0.75886,1.67665 -0.46399,0.80017 -0.59044,0.97334 -1.07333,1.46986 -0.50354,0.51775 -0.91415,0.8361 -1.32408,1.02658 -0.30281,0.14071 -0.87782,0.34109 -1.03788,0.36169 -0.17138,0.0221 -0.23565,-0.006 -0.56248,-0.2479 z" id="SvgjsPath1192"></path><text xml:space="preserve" style="font-weight:bold;font-size:2.82223px;font-family:'Toronto Subway';-inkscape-font-specification:'Toronto Subway Bold';text-align:center;writing-mode:lr-tb;direction:ltr;text-anchor:middle;fill:#ff0000;stroke:none;stroke-width:0.659001;stroke-dasharray:none;paint-order:fill markers stroke" x="-372.8204" y="-434.62479" id="SvgjsText1191" transform="rotate(29.999999)"><tspan sodipodi:role="line" id="SvgjsTspan1190" style="font-style:normal;font-variant:normal;font-weight:bold;font-stretch:normal;font-family:Arial;-inkscape-font-specification:'Arial Bold';fill:#ff0000;stroke:none;stroke-width:0.658999" x="-372.8204" y="-434.62479">CORRELATION</tspan><tspan sodipodi:role="line" style="font-style:normal;font-variant:normal;font-weight:bold;font-stretch:normal;font-family:Arial;-inkscape-font-specification:'Arial Bold';fill:#ff0000;stroke:none;stroke-width:0.658999" x="-372.8204" y="-430.94864" id="SvgjsTspan1189">!=</tspan><tspan sodipodi:role="line" style="font-style:normal;font-variant:normal;font-weight:bold;font-stretch:normal;font-family:Arial;-inkscape-font-specification:'Arial Bold';fill:#ff0000;stroke:none;stroke-width:0.658999" x="-372.8204" y="-427.27246" id="SvgjsTspan1188">CAUSATION</tspan></text></g></g></g></g><style type="text/css" id="SvgjsStyle1187">
	.st0{fill:#75AADB;}
	.st1{fill:#4D4D4D;}
	.st2{fill:#FFFFFF;}
	.st3{fill:url(#SVGID_1_);}
	.st4{fill:url(#SVGID_2_);}
	.st5{fill:url(#SVGID_3_);}
	.st6{fill:url(#SVGID_4_);}
	.st7{fill:url(#SVGID_5_);}
	.st8{fill:url(#SVGID_6_);}
	.st9{fill:url(#SVGID_7_);}
	.st10{fill:url(#SVGID_8_);}
	.st11{fill:url(#SVGID_9_);}
	.st12{fill:url(#SVGID_10_);}
	.st13{opacity:0.18;fill:url(#SVGID_11_);}
	.st14{opacity:0.3;}
</style><style type="text/css" id="SvgjsStyle1186">
	.st0{fill:#75AADB;}
	.st1{fill:#4D4D4D;}
	.st2{fill:#FFFFFF;}
	.st3{fill:url(#SVGID_1_);}
	.st4{fill:url(#SVGID_2_);}
	.st5{fill:url(#SVGID_3_);}
	.st6{fill:url(#SVGID_4_);}
	.st7{fill:url(#SVGID_5_);}
	.st8{fill:url(#SVGID_6_);}
	.st9{fill:url(#SVGID_7_);}
	.st10{fill:url(#SVGID_8_);}
	.st11{fill:url(#SVGID_9_);}
	.st12{fill:url(#SVGID_10_);}
	.st13{opacity:0.18;fill:url(#SVGID_11_);}
	.st14{opacity:0.3;}
</style><style type="text/css" id="SvgjsStyle1185">
	.st0{fill:#75AADB;}
	.st1{fill:#4D4D4D;}
	.st2{fill:#FFFFFF;}
	.st3{fill:url(#SVGID_1_);}
	.st4{fill:url(#SVGID_2_);}
	.st5{fill:url(#SVGID_3_);}
	.st6{fill:url(#SVGID_4_);}
	.st7{fill:url(#SVGID_5_);}
	.st8{fill:url(#SVGID_6_);}
	.st9{fill:url(#SVGID_7_);}
	.st10{fill:url(#SVGID_8_);}
	.st11{fill:url(#SVGID_9_);}
	.st12{fill:url(#SVGID_10_);}
	.st13{opacity:0.18;fill:url(#SVGID_11_);}
	.st14{opacity:0.3;}
</style><style type="text/css" id="SvgjsStyle1184">
	.st0{fill:#75AADB;}
	.st1{fill:#4D4D4D;}
	.st2{fill:#FFFFFF;}
	.st3{fill:url(#SVGID_1_);}
	.st4{fill:url(#SVGID_2_);}
	.st5{fill:url(#SVGID_3_);}
	.st6{fill:url(#SVGID_4_);}
	.st7{fill:url(#SVGID_5_);}
	.st8{fill:url(#SVGID_6_);}
	.st9{fill:url(#SVGID_7_);}
	.st10{fill:url(#SVGID_8_);}
	.st11{fill:url(#SVGID_9_);}
	.st12{fill:url(#SVGID_10_);}
	.st13{opacity:0.18;fill:url(#SVGID_11_);}
	.st14{opacity:0.3;}
</style><style type="text/css" id="SvgjsStyle1183">
	.st0{fill:#75AADB;}
	.st1{fill:#4D4D4D;}
	.st2{fill:#FFFFFF;}
	.st3{fill:url(#SVGID_1_);}
	.st4{fill:url(#SVGID_2_);}
	.st5{fill:url(#SVGID_3_);}
	.st6{fill:url(#SVGID_4_);}
	.st7{fill:url(#SVGID_5_);}
	.st8{fill:url(#SVGID_6_);}
	.st9{fill:url(#SVGID_7_);}
	.st10{fill:url(#SVGID_8_);}
	.st11{fill:url(#SVGID_9_);}
	.st12{fill:url(#SVGID_10_);}
	.st13{opacity:0.18;fill:url(#SVGID_11_);}
	.st14{opacity:0.3;}
</style><style type="text/css" id="SvgjsStyle1182">
	.st0{fill:#75AADB;}
	.st1{fill:#4D4D4D;}
	.st2{fill:#FFFFFF;}
	.st3{fill:url(#SVGID_1_);}
	.st4{fill:url(#SVGID_2_);}
	.st5{fill:url(#SVGID_3_);}
	.st6{fill:url(#SVGID_4_);}
	.st7{fill:url(#SVGID_5_);}
	.st8{fill:url(#SVGID_6_);}
	.st9{fill:url(#SVGID_7_);}
	.st10{fill:url(#SVGID_8_);}
	.st11{fill:url(#SVGID_9_);}
	.st12{fill:url(#SVGID_10_);}
	.st13{opacity:0.18;fill:url(#SVGID_11_);}
	.st14{opacity:0.3;}
</style></svg><style>@media (prefers-color-scheme: light) { :root { filter: none; } }
@media (prefers-color-scheme: dark) { :root { filter: none; } }
</style></svg>